<svg width="14" height="14" viewBox="0 0 14 14" fill="none" xmlns="http://www.w3.org/2000/svg">
<g id="Frame">
<path id="Vector" d="M11.6848 9.05963C11.6441 9.10031 11.5959 9.13258 11.5428 9.1546C11.4897 9.17661 11.4327 9.18794 11.3752 9.18794C11.3177 9.18794 11.2608 9.17661 11.2077 9.1546C11.1546 9.13258 11.1063 9.10031 11.0657 9.05963L7.00024 4.99362L2.93477 9.05963C2.85268 9.14172 2.74134 9.18784 2.62524 9.18784C2.50915 9.18784 2.3978 9.14172 2.31571 9.05963C2.23362 8.97754 2.1875 8.8662 2.1875 8.7501C2.1875 8.634 2.23362 8.52266 2.31571 8.44057L6.69071 4.06557C6.73134 4.02489 6.7796 3.99262 6.83271 3.97061C6.88582 3.94859 6.94275 3.93726 7.00024 3.93726C7.05774 3.93726 7.11467 3.94859 7.16778 3.97061C7.22089 3.99262 7.26914 4.02489 7.30977 4.06557L11.6848 8.44057C11.7255 8.4812 11.7577 8.52945 11.7797 8.58256C11.8018 8.63568 11.8131 8.69261 11.8131 8.7501C11.8131 8.80759 11.8018 8.86452 11.7797 8.91764C11.7577 8.97075 11.7255 9.019 11.6848 9.05963Z" fill="#0570EB"/>
</g>
</svg>
