<svg xmlns="http://www.w3.org/2000/svg" width="48" height="48" viewBox="0 0 48 48" fill="none">
  <path d="M0 23.9995C0 10.7449 10.7452 0 23.9997 0C37.2546 0 48 10.7452 48 24V48H24.0005C10.7454 48 0 37.2546 0 23.9995Z" fill="#C267E4" fill-opacity="0.15"/>
  <path d="M11.5053 19.8848L17.8857 13.5056C18.0656 13.3257 18.2792 13.1829 18.5143 13.0855C18.7494 12.9881 19.0014 12.938 19.2559 12.938C19.5103 12.938 19.7623 12.9881 19.9974 13.0855C20.2325 13.1829 20.4461 13.3257 20.626 13.5056L37.4968 30.3752C37.6768 30.5551 37.8195 30.7687 37.9169 31.0038C38.0143 31.2389 38.0645 31.4909 38.0645 31.7454C38.0645 31.9998 38.0143 32.2518 37.9169 32.4869C37.8195 32.722 37.6768 32.9356 37.4968 33.1155L31.1164 39.4948C30.9365 39.6747 30.7229 39.8175 30.4878 39.9149C30.2527 40.0123 30.0007 40.0624 29.7462 40.0624C29.4917 40.0624 29.2398 40.0123 29.0047 39.9149C28.7696 39.8175 28.556 39.6747 28.376 39.4948L11.5053 22.6252C11.3253 22.4453 11.1825 22.2317 11.0851 21.9966C10.9877 21.7615 10.9376 21.5095 10.9376 21.255C10.9376 21.0005 10.9877 20.7486 11.0851 20.5135C11.1825 20.2784 11.3253 20.0648 11.5053 19.8848ZM29.7468 38.1252L36.126 31.7448L32.251 27.8698L29.0614 31.0606C28.9714 31.1506 28.8646 31.222 28.747 31.2707C28.6294 31.3194 28.5033 31.3445 28.376 31.3445C28.2487 31.3445 28.1227 31.3194 28.0051 31.2707C27.8875 31.222 27.7807 31.1506 27.6906 31.0606C27.6006 30.9706 27.5292 30.8637 27.4805 30.7461C27.4318 30.6285 27.4067 30.5025 27.4067 30.3752C27.4067 30.2479 27.4318 30.1219 27.4805 30.0043C27.5292 29.8867 27.6006 29.7798 27.6906 29.6898L30.8815 26.5002L28.376 23.9948L25.1864 27.1856C25.0046 27.3674 24.7581 27.4695 24.501 27.4695C24.244 27.4695 23.9974 27.3674 23.8156 27.1856C23.6339 27.0038 23.5317 26.7573 23.5317 26.5002C23.5317 26.2431 23.6339 25.9966 23.8156 25.8148L27.0065 22.6252L24.501 20.1198L21.3114 23.3106C21.2214 23.4006 21.1146 23.472 20.997 23.5207C20.8794 23.5694 20.7533 23.5945 20.626 23.5945C20.4987 23.5945 20.3727 23.5694 20.2551 23.5207C20.1375 23.472 20.0306 23.4006 19.9406 23.3106C19.8506 23.2206 19.7792 23.1137 19.7305 22.9961C19.6818 22.8785 19.6567 22.7525 19.6567 22.6252C19.6567 22.4979 19.6818 22.3719 19.7305 22.2543C19.7792 22.1367 19.8506 22.0298 19.9406 21.9398L23.1315 18.7502L19.2565 14.8752L12.876 21.2556L29.7468 38.1252Z" fill="#C267E4"/>
</svg>