<svg xmlns="http://www.w3.org/2000/svg" width="48" height="48" viewBox="0 0 48 48" fill="none">
  <path d="M0 23.9995C0 10.7449 10.7452 0 23.9997 0C37.2546 0 48 10.7454 48 24.0003C48 37.2548 37.2551 48 24.0005 48C10.7454 48 0 37.2546 0 23.9995Z" fill="#C267E4" fill-opacity="0.15"/>
  <path d="M38.0625 25C38.0635 23.9234 37.7996 22.863 37.294 21.9125C36.7885 20.9619 36.0569 20.1503 35.1636 19.5493C34.2704 18.9482 33.243 18.5762 32.172 18.4659C31.101 18.3557 30.0194 18.5106 29.0224 18.9171C28.0255 19.3236 27.1438 19.9691 26.4552 20.7967C25.7666 21.6243 25.2923 22.6087 25.0739 23.6629C24.8555 24.7172 24.8999 25.809 25.2031 26.842C25.5063 27.8751 26.059 28.8177 26.8125 29.5867V36.25C26.8124 36.4099 26.8532 36.5671 26.931 36.7068C27.0088 36.8465 27.121 36.964 27.257 37.0481C27.393 37.1321 27.5482 37.18 27.7079 37.1872C27.8676 37.1944 28.0265 37.1606 28.1695 37.0891L31.5 35.4227L34.8305 37.0891C34.9735 37.1606 35.1324 37.1944 35.2921 37.1872C35.4518 37.18 35.607 37.1321 35.743 37.0481C35.879 36.964 35.9912 36.8465 36.069 36.7068C36.1468 36.5671 36.1876 36.4099 36.1875 36.25V29.5867C37.3899 28.3629 38.0633 26.7157 38.0625 25ZM31.5 20.3125C32.4271 20.3125 33.3334 20.5874 34.1042 21.1025C34.8751 21.6176 35.4759 22.3496 35.8307 23.2062C36.1855 24.0627 36.2783 25.0052 36.0974 25.9145C35.9166 26.8238 35.4701 27.659 34.8146 28.3146C34.159 28.9701 33.3238 29.4166 32.4145 29.5974C31.5052 29.7783 30.5627 29.6855 29.7062 29.3307C28.8496 28.9759 28.1176 28.3751 27.6025 27.6042C27.0874 26.8334 26.8125 25.9271 26.8125 25C26.8125 23.7568 27.3064 22.5645 28.1854 21.6854C29.0645 20.8064 30.2568 20.3125 31.5 20.3125ZM31.9195 33.5359C31.7893 33.4708 31.6456 33.4368 31.5 33.4368C31.3544 33.4368 31.2107 33.4708 31.0805 33.5359L28.6875 34.7336V30.9285C29.5663 31.3459 30.5271 31.5625 31.5 31.5625C32.4729 31.5625 33.4337 31.3459 34.3125 30.9285V34.7336L31.9195 33.5359ZM24.9375 32.5C24.9375 32.7486 24.8387 32.9871 24.6629 33.1629C24.4871 33.3387 24.2486 33.4375 24 33.4375H13.6875C13.1902 33.4375 12.7133 33.24 12.3617 32.8883C12.01 32.5367 11.8125 32.0598 11.8125 31.5625V16.5625C11.8125 16.0652 12.01 15.5883 12.3617 15.2367C12.7133 14.885 13.1902 14.6875 13.6875 14.6875H34.3125C34.8098 14.6875 35.2867 14.885 35.6383 15.2367C35.99 15.5883 36.1875 16.0652 36.1875 16.5625C36.1875 16.8111 36.0887 17.0496 35.9129 17.2254C35.7371 17.4012 35.4986 17.5 35.25 17.5C35.0014 17.5 34.7629 17.4012 34.5871 17.2254C34.4113 17.0496 34.3125 16.8111 34.3125 16.5625H13.6875V31.5625H24C24.2486 31.5625 24.4871 31.6613 24.6629 31.8371C24.8387 32.0129 24.9375 32.2514 24.9375 32.5ZM23.0625 25.9375C23.0625 26.1861 22.9637 26.4246 22.7879 26.6004C22.6121 26.7762 22.3736 26.875 22.125 26.875H17.4375C17.1889 26.875 16.9504 26.7762 16.7746 26.6004C16.5988 26.4246 16.5 26.1861 16.5 25.9375C16.5 25.6889 16.5988 25.4504 16.7746 25.2746C16.9504 25.0988 17.1889 25 17.4375 25H22.125C22.3736 25 22.6121 25.0988 22.7879 25.2746C22.9637 25.4504 23.0625 25.6889 23.0625 25.9375ZM23.0625 22.1875C23.0625 22.4361 22.9637 22.6746 22.7879 22.8504C22.6121 23.0262 22.3736 23.125 22.125 23.125H17.4375C17.1889 23.125 16.9504 23.0262 16.7746 22.8504C16.5988 22.6746 16.5 22.4361 16.5 22.1875C16.5 21.9389 16.5988 21.7004 16.7746 21.5246C16.9504 21.3488 17.1889 21.25 17.4375 21.25H22.125C22.3736 21.25 22.6121 21.3488 22.7879 21.5246C22.9637 21.7004 23.0625 21.9389 23.0625 22.1875Z" fill="#C267E4"/>
</svg>