<svg xmlns="http://www.w3.org/2000/svg" viewBox="0 0 47 47" fill="none">
  <path d="M11.75 47C5.26065 47 0 41.7394 0 35.25C0 28.7607 5.26064 23.5 11.75 23.5H23.5V35.25C23.5 41.7394 18.2393 47 11.75 47Z" fill="#F6D253"/>
  <path d="M23.5 23.5L11.75 23.5C5.26069 23.5 3.95944e-05 18.2394 3.90271e-05 11.75C3.84598e-05 5.26069 5.26068 4.16489e-05 11.75 4.10815e-05L13.045 4.09683e-05C18.8191 4.04635e-05 23.5 4.68091 23.5 10.455L23.5 23.5Z" fill="#C267E4"/>
  <path d="M35.1836 47C41.6729 47 46.9336 41.7394 46.9336 35.25C46.9336 28.7607 41.673 23.5 35.1836 23.5H23.4336V35.25C23.4336 41.7394 28.6943 47 35.1836 47Z" fill="#F6D253"/>
  <path d="M23.4336 23.5L35.1836 23.5C41.6729 23.5 46.9336 18.2394 46.9336 11.75C46.9336 5.26069 41.6729 4.16489e-05 35.1836 4.10815e-05L33.8886 4.09683e-05C28.1145 4.04635e-05 23.4336 4.68091 23.4336 10.455L23.4336 23.5Z" fill="#C267E4"/>
</svg>