<svg width="158" height="37" viewBox="0 0 158 37" fill="none" xmlns="http://www.w3.org/2000/svg">
<path d="M35.4056 25.4165C34.9914 25.4165 34.7842 25.2094 34.7842 24.7951V11.9533C34.7842 11.5391 34.9914 11.332 35.4056 11.332H36.0477C36.2686 11.332 36.4274 11.3872 36.5241 11.4977C36.6207 11.5943 36.6691 11.7462 36.6691 11.9533V23.9045H43.5249C43.7459 23.9045 43.8977 23.9528 43.9806 24.0495C44.0773 24.1323 44.1256 24.2842 44.1256 24.5052V24.8573C44.1256 25.0644 44.0773 25.2094 43.9806 25.2922C43.8977 25.3751 43.7459 25.4165 43.5249 25.4165H35.4056ZM52.6492 25.7887C51.4084 25.7887 50.2751 25.5737 49.2494 25.1435C48.2236 24.7134 47.3964 24.0433 46.7678 23.1334C46.1556 22.207 45.8496 21.0571 45.8496 19.684C45.8496 17.5333 46.4038 15.9037 47.5122 14.7952C48.6372 13.6868 50.2255 13.1325 52.2769 13.1325C54.3118 13.1325 55.8422 13.6702 56.8679 14.7456C57.8936 15.8044 58.4065 17.3844 58.4065 19.4855C58.4065 19.9321 58.1914 20.1555 57.7613 20.1555H48.0086C48.0086 21.4625 48.4387 22.4551 49.299 23.1334C50.1593 23.8117 51.3505 24.1509 52.8725 24.1509C54.3118 24.1509 55.5527 23.8283 56.5949 23.1831C56.6942 23.1334 56.7686 23.1086 56.8183 23.1086C56.9175 23.1086 56.992 23.1665 57.0416 23.2823L57.5131 24.1013C57.5462 24.1509 57.5628 24.2171 57.5628 24.2998C57.5628 24.4156 57.4966 24.5149 57.3642 24.5976C56.7025 25.0112 55.9911 25.309 55.23 25.491C54.4856 25.6895 53.6253 25.7887 52.6492 25.7887ZM56.322 18.6417C56.322 17.4009 55.9828 16.4414 55.3045 15.763C54.6262 15.0682 53.617 14.7208 52.2769 14.7208C50.9038 14.7208 49.845 15.0765 49.1005 15.7879C48.3725 16.4993 48.0086 17.4505 48.0086 18.6417H56.322ZM67.2562 25.7887C65.1551 25.7887 63.542 25.2262 62.417 24.1013C61.292 22.9597 60.7295 21.4128 60.7295 19.4606C60.7295 17.5084 61.292 15.9698 62.417 14.8448C63.542 13.7033 65.1551 13.1325 67.2562 13.1325C69.3407 13.1325 70.9455 13.7033 72.0705 14.8448C73.212 15.9698 73.7828 17.5084 73.7828 19.4606C73.7828 21.4128 73.212 22.9597 72.0705 24.1013C70.9455 25.2262 69.3407 25.7887 67.2562 25.7887ZM67.2562 24.0516C68.6459 24.0516 69.7047 23.6628 70.4326 22.8853C71.1771 22.0911 71.5493 20.9496 71.5493 19.4606C71.5493 17.9882 71.1854 16.8632 70.4574 16.0857C69.7295 15.2915 68.6624 14.8945 67.2562 14.8945C65.8499 14.8945 64.7745 15.2915 64.0301 16.0857C63.3021 16.8632 62.9382 17.9882 62.9382 19.4606C62.9382 20.9331 63.3021 22.0663 64.0301 22.8604C64.7745 23.6546 65.8499 24.0516 67.2562 24.0516Z" fill="#0B0E25"/>
<path d="M81.2321 25.215C80.2379 25.215 79.2713 25.0838 78.3324 24.8214C77.4072 24.5591 76.6615 24.2208 76.0954 23.8065V11.7311C76.0954 11.4273 76.1644 11.1995 76.3025 11.0476C76.4544 10.8957 76.6961 10.8198 77.0275 10.8198H78.5188C78.864 10.8198 79.1056 10.8957 79.2437 11.0476C79.3818 11.1857 79.4508 11.4135 79.4508 11.7311V15.4179C79.7684 15.1694 80.1827 14.983 80.6936 14.8587C81.2045 14.7206 81.7361 14.6516 82.2885 14.6516C83.8902 14.6516 85.1123 15.0796 85.9546 15.9358C86.8107 16.7781 87.2388 17.9794 87.2388 19.5397C87.2388 21.3348 86.7278 22.7295 85.706 23.7237C84.698 24.7179 83.2067 25.215 81.2321 25.215ZM81.0664 22.8538C82.0054 22.8538 82.7027 22.5845 83.1584 22.046C83.6141 21.4936 83.8419 20.672 83.8419 19.5812C83.8419 18.6974 83.6624 18.0484 83.3034 17.6342C82.9582 17.2199 82.3851 17.0128 81.5842 17.0128C81.0043 17.0128 80.5003 17.1647 80.0722 17.4685C79.658 17.7585 79.4508 18.1865 79.4508 18.7527V22.5016C79.6442 22.6121 79.8858 22.7019 80.1758 22.7709C80.4658 22.8261 80.7626 22.8538 81.0664 22.8538ZM94.4284 25.215C93.31 25.215 92.3019 25.0286 91.4044 24.6557C90.5207 24.2691 89.8164 23.6961 89.2917 22.9366C88.7808 22.1633 88.5254 21.2106 88.5254 20.0783C88.5254 18.3108 89.0087 16.9645 89.9752 16.0393C90.9556 15.1142 92.3503 14.6516 94.1592 14.6516C95.9405 14.6516 97.2868 15.1004 98.1981 15.9979C99.1233 16.8954 99.5859 18.1727 99.5859 19.8297C99.5859 20.4097 99.3235 20.6996 98.7988 20.6996H91.7565C91.7565 21.4453 92.0327 22.0253 92.585 22.4395C93.1512 22.8399 93.9244 23.0402 94.9048 23.0402C95.4848 23.0402 95.9888 22.9849 96.4168 22.8745C96.8449 22.7502 97.2592 22.5776 97.6596 22.3567C97.7977 22.2876 97.8943 22.2531 97.9496 22.2531C98.0462 22.2531 98.136 22.329 98.2188 22.4809L98.8195 23.5994C98.8747 23.6961 98.9023 23.7789 98.9023 23.848C98.9023 23.9584 98.8264 24.0689 98.6745 24.1794C98.1222 24.5384 97.5008 24.8007 96.8104 24.9664C96.12 25.1321 95.326 25.215 94.4284 25.215ZM96.5204 18.9184C96.5204 18.228 96.3271 17.6894 95.9405 17.3028C95.5538 16.9162 94.967 16.7228 94.1799 16.7228C93.3928 16.7228 92.7921 16.9231 92.3779 17.3235C91.9636 17.7101 91.7565 18.2418 91.7565 18.9184H96.5204ZM106.643 28.4254C105.8 28.4254 104.986 28.3426 104.199 28.1769C103.412 28.0112 102.804 27.7902 102.376 27.5141C102.279 27.4312 102.231 27.3415 102.231 27.2448C102.231 27.1758 102.252 27.1067 102.293 27.0377L103.039 25.7742C103.08 25.7052 103.122 25.643 103.163 25.5878C103.218 25.5464 103.273 25.5257 103.329 25.5257C103.356 25.5257 103.439 25.5533 103.577 25.6085C104.226 25.9399 105.144 26.1056 106.332 26.1056C107.119 26.1056 107.699 25.9261 108.072 25.5671C108.458 25.2081 108.652 24.6074 108.652 23.7651C107.989 24.3865 107.057 24.6972 105.856 24.6972C104.254 24.6972 103.018 24.2829 102.148 23.4544C101.292 22.6259 100.864 21.4453 100.864 19.9126C100.864 18.2003 101.382 16.8954 102.417 15.9979C103.467 15.1004 104.993 14.6516 106.995 14.6516C107.961 14.6516 108.893 14.7897 109.791 15.0658C110.689 15.3282 111.427 15.6596 112.007 16.06V22.8123C112.007 24.5108 111.579 25.8709 110.723 26.8927C109.867 27.9145 108.507 28.4254 106.643 28.4254ZM106.601 22.2738C107.236 22.2738 107.734 22.115 108.093 21.7974C108.465 21.466 108.652 21.0034 108.652 20.4097V17.3028C108.182 17.1095 107.568 17.0128 106.808 17.0128C105.966 17.0266 105.331 17.2407 104.903 17.6549C104.475 18.0692 104.261 18.7596 104.261 19.7262C104.261 20.5961 104.447 21.2382 104.82 21.6524C105.207 22.0667 105.8 22.2738 106.601 22.2738ZM115.075 24.9043C114.73 24.9043 114.481 24.8353 114.329 24.6972C114.191 24.5453 114.122 24.3174 114.122 24.0137V11.4204C114.122 11.1857 114.164 11.0269 114.247 10.944C114.329 10.8612 114.495 10.8198 114.744 10.8198H116.67C116.919 10.8198 117.084 10.8612 117.167 10.944C117.264 11.0269 117.312 11.1857 117.312 11.4204V15.8322C118.21 15.0451 119.376 14.6516 120.813 14.6516C121.945 14.6516 122.849 14.9623 123.526 15.5836C124.216 16.1912 124.561 17.1026 124.561 18.3177V24.0137C124.561 24.3174 124.486 24.5453 124.334 24.6972C124.196 24.8353 123.961 24.9043 123.629 24.9043H122.076C121.731 24.9043 121.482 24.8353 121.33 24.6972C121.192 24.5453 121.123 24.3174 121.123 24.0137V18.5248C121.123 17.9863 120.999 17.5997 120.75 17.3649C120.502 17.1302 120.122 17.0128 119.611 17.0128C119.045 17.0128 118.555 17.1716 118.141 17.4892C117.74 17.793 117.54 18.1934 117.54 18.6905V24.0137C117.54 24.3174 117.471 24.5453 117.333 24.6972C117.195 24.8353 116.953 24.9043 116.608 24.9043H115.075ZM127.805 13.5745C127.418 13.5745 127.114 13.4641 126.893 13.2431C126.672 13.0222 126.562 12.7529 126.562 12.4353V11.959C126.562 11.6414 126.672 11.3721 126.893 11.1512C127.114 10.9302 127.418 10.8198 127.805 10.8198H129.006C129.407 10.8198 129.717 10.9302 129.938 11.1512C130.159 11.3721 130.27 11.6414 130.27 11.959V12.4353C130.27 12.7529 130.159 13.0222 129.938 13.2431C129.717 13.4641 129.407 13.5745 129.006 13.5745H127.805ZM127.639 24.9043C127.294 24.9043 127.052 24.8353 126.914 24.6972C126.776 24.5453 126.707 24.3174 126.707 24.0137V15.8736C126.707 15.556 126.776 15.3282 126.914 15.1901C127.052 15.0382 127.294 14.9623 127.639 14.9623H129.172C129.517 14.9623 129.759 15.0382 129.897 15.1901C130.049 15.342 130.125 15.5698 130.125 15.8736V24.0137C130.125 24.3174 130.049 24.5453 129.897 24.6972C129.759 24.8353 129.517 24.9043 129.172 24.9043H127.639ZM133.34 24.9043C132.995 24.9043 132.746 24.8353 132.595 24.6972C132.456 24.5453 132.387 24.3174 132.387 24.0137V15.5629C132.387 15.3282 132.429 15.1694 132.512 15.0865C132.595 15.0037 132.76 14.9623 133.009 14.9623H134.666C134.832 14.9623 134.956 14.9899 135.039 15.0451C135.121 15.1004 135.17 15.197 135.184 15.3351L135.246 16.06C135.674 15.6182 136.212 15.273 136.861 15.0244C137.51 14.7759 138.249 14.6516 139.078 14.6516C140.21 14.6516 141.114 14.9623 141.791 15.5836C142.481 16.1912 142.827 17.1026 142.827 18.3177V24.0137C142.827 24.3174 142.751 24.5453 142.599 24.6972C142.461 24.8353 142.226 24.9043 141.894 24.9043H140.341C139.996 24.9043 139.747 24.8353 139.595 24.6972C139.457 24.5453 139.388 24.3174 139.388 24.0137V18.5248C139.388 17.9863 139.271 17.5997 139.036 17.3649C138.801 17.1302 138.415 17.0128 137.876 17.0128C137.296 17.0128 136.806 17.1716 136.406 17.4892C136.005 17.793 135.805 18.1934 135.805 18.6905V24.0137C135.805 24.3174 135.736 24.5453 135.598 24.6972C135.46 24.8353 135.218 24.9043 134.873 24.9043H133.34ZM150.316 25.215C149.197 25.215 148.189 25.0286 147.292 24.6557C146.408 24.2691 145.704 23.6961 145.179 22.9366C144.668 22.1633 144.413 21.2106 144.413 20.0783C144.413 18.3108 144.896 16.9645 145.863 16.0393C146.843 15.1142 148.238 14.6516 150.047 14.6516C151.828 14.6516 153.174 15.1004 154.086 15.9979C155.011 16.8954 155.473 18.1727 155.473 19.8297C155.473 20.4097 155.211 20.6996 154.686 20.6996H147.644C147.644 21.4453 147.92 22.0253 148.473 22.4395C149.039 22.8399 149.812 23.0402 150.792 23.0402C151.372 23.0402 151.876 22.9849 152.304 22.8745C152.732 22.7502 153.147 22.5776 153.547 22.3567C153.685 22.2876 153.782 22.2531 153.837 22.2531C153.934 22.2531 154.023 22.329 154.106 22.4809L154.707 23.5994C154.762 23.6961 154.79 23.7789 154.79 23.848C154.79 23.9584 154.714 24.0689 154.562 24.1794C154.01 24.5384 153.388 24.8007 152.698 24.9664C152.007 25.1321 151.213 25.215 150.316 25.215ZM152.408 18.9184C152.408 18.228 152.215 17.6894 151.828 17.3028C151.441 16.9162 150.854 16.7228 150.067 16.7228C149.28 16.7228 148.68 16.9231 148.265 17.3235C147.851 17.7101 147.644 18.2418 147.644 18.9184H152.408Z" fill="#0B0E25"/>
<path d="M37.2151 34.751H34.1433V29.2541H37.2151V29.8623H34.8361V31.5791H37.0765V32.1796H34.8361V34.1428H37.2151V34.751ZM40.3151 30.5475C40.8078 30.5475 41.1799 30.6681 41.4314 30.9093C41.6829 31.1454 41.8086 31.5303 41.8086 32.0641V34.751H41.1388V32.1103C41.1388 31.7767 41.0644 31.5278 40.9156 31.3635C40.7667 31.1993 40.5332 31.1172 40.215 31.1172C39.7582 31.1172 39.4425 31.2455 39.268 31.5021C39.0935 31.7587 39.0063 32.1283 39.0063 32.6107V34.751H38.3288V30.6245H38.8754L38.9755 31.1865H39.014C39.1064 31.0427 39.2193 30.9247 39.3527 30.8323C39.4913 30.7348 39.6427 30.6629 39.807 30.6168C39.9712 30.5706 40.1406 30.5475 40.3151 30.5475ZM44.5506 30.5475C44.8227 30.5475 45.0665 30.5988 45.282 30.7014C45.5027 30.8041 45.6901 30.9606 45.844 31.1711H45.8825L45.9749 30.6245H46.5138V34.8203C46.5138 35.2103 46.4471 35.5362 46.3137 35.798C46.1802 36.0649 45.9775 36.2651 45.7054 36.3985C45.4334 36.532 45.087 36.5987 44.6661 36.5987C44.3684 36.5987 44.0938 36.5756 43.8424 36.5294C43.596 36.4883 43.3753 36.4242 43.1803 36.3369V35.7133C43.3137 35.78 43.46 35.8365 43.6191 35.8827C43.7782 35.934 43.9501 35.9725 44.1349 35.9982C44.3197 36.0238 44.5096 36.0367 44.7046 36.0367C45.0588 36.0367 45.3359 35.9315 45.5361 35.721C45.7414 35.5157 45.844 35.2334 45.844 34.8742V34.7125C45.844 34.6509 45.8466 34.5636 45.8517 34.4507C45.8569 34.3327 45.862 34.2506 45.8671 34.2044H45.8363C45.6926 34.4148 45.513 34.5713 45.2974 34.674C45.087 34.7766 44.8406 34.828 44.5583 34.828C44.0246 34.828 43.6063 34.6406 43.3034 34.266C43.0058 33.8913 42.8569 33.3678 42.8569 32.6954C42.8569 32.254 42.9236 31.8742 43.0571 31.556C43.1957 31.2327 43.3907 30.9837 43.6422 30.8092C43.8937 30.6347 44.1965 30.5475 44.5506 30.5475ZM44.643 31.1172C44.4121 31.1172 44.2145 31.1788 44.0502 31.3019C43.8911 31.4251 43.7679 31.6048 43.6807 31.8409C43.5986 32.0769 43.5575 32.3644 43.5575 32.7031C43.5575 33.2112 43.6499 33.6013 43.8347 33.8733C44.0246 34.1402 44.2991 34.2737 44.6584 34.2737C44.8689 34.2737 45.0485 34.248 45.1973 34.1967C45.3462 34.1402 45.4694 34.0555 45.5669 33.9426C45.6644 33.8246 45.7362 33.6757 45.7824 33.4961C45.8286 33.3164 45.8517 33.1034 45.8517 32.8571V32.6954C45.8517 32.3207 45.8081 32.0179 45.7208 31.787C45.6387 31.556 45.5078 31.3866 45.3282 31.2788C45.1486 31.1711 44.9202 31.1172 44.643 31.1172ZM48.5019 34.751H47.8244V28.8999H48.5019V34.751ZM50.4867 30.6245V34.751H49.8092V30.6245H50.4867ZM50.1557 29.077C50.2583 29.077 50.3482 29.1129 50.4251 29.1848C50.5073 29.2515 50.5483 29.3593 50.5483 29.5081C50.5483 29.6518 50.5073 29.7596 50.4251 29.8315C50.3482 29.9033 50.2583 29.9393 50.1557 29.9393C50.0428 29.9393 49.9478 29.9033 49.8708 29.8315C49.7938 29.7596 49.7553 29.6518 49.7553 29.5081C49.7553 29.3593 49.7938 29.2515 49.8708 29.1848C49.9478 29.1129 50.0428 29.077 50.1557 29.077ZM54.4809 33.6116C54.4809 33.8785 54.4142 34.1017 54.2808 34.2814C54.1473 34.461 53.9574 34.597 53.7111 34.6894C53.4647 34.7818 53.1721 34.828 52.8334 34.828C52.546 34.828 52.2971 34.8049 52.0866 34.7587C51.8813 34.7125 51.6991 34.6483 51.54 34.5662V33.9503C51.7043 34.0324 51.9019 34.1094 52.1328 34.1813C52.3689 34.248 52.6076 34.2814 52.8488 34.2814C53.1927 34.2814 53.4416 34.2275 53.5956 34.1197C53.7496 34.0068 53.8265 33.8579 53.8265 33.6732C53.8265 33.5705 53.7983 33.4781 53.7419 33.396C53.6854 33.3139 53.5827 33.2318 53.4339 33.1496C53.2902 33.0675 53.0823 32.9751 52.8103 32.8725C52.5434 32.7698 52.315 32.6672 52.1251 32.5645C51.9352 32.4619 51.7889 32.3387 51.6863 32.195C51.5836 32.0513 51.5323 31.8665 51.5323 31.6407C51.5323 31.2917 51.6735 31.0222 51.9557 30.8323C52.2432 30.6424 52.6178 30.5475 53.0798 30.5475C53.3313 30.5475 53.5648 30.5731 53.7803 30.6245C54.001 30.6706 54.2063 30.7374 54.3962 30.8246L54.1653 31.3635C54.0524 31.3122 53.9318 31.2686 53.8034 31.2327C53.6803 31.1916 53.5545 31.1608 53.4262 31.1403C53.2979 31.1146 53.167 31.1018 53.0336 31.1018C52.7564 31.1018 52.5434 31.148 52.3946 31.2404C52.2509 31.3276 52.179 31.4482 52.179 31.6022C52.179 31.7151 52.2124 31.8126 52.2791 31.8947C52.3458 31.9717 52.4562 32.0487 52.6101 32.1257C52.7692 32.1976 52.9797 32.2848 53.2414 32.3875C53.5032 32.485 53.7265 32.5851 53.9112 32.6877C54.096 32.7904 54.2371 32.9161 54.3347 33.065C54.4322 33.2087 54.4809 33.3909 54.4809 33.6116ZM56.1555 30.6168C56.1555 30.7143 56.1504 30.8144 56.1401 30.917C56.135 31.0197 56.1273 31.112 56.117 31.1942H56.1632C56.2505 31.0504 56.3608 30.9324 56.4943 30.84C56.6277 30.7476 56.7766 30.6783 56.9408 30.6321C57.105 30.5808 57.2744 30.5552 57.4489 30.5552C57.7825 30.5552 58.0597 30.6091 58.2804 30.7168C58.5062 30.8195 58.6756 30.9812 58.7885 31.2019C58.9014 31.4226 58.9579 31.71 58.9579 32.0641V34.751H58.2881V32.1103C58.2881 31.7767 58.2137 31.5278 58.0648 31.3635C57.916 31.1993 57.6824 31.1172 57.3642 31.1172C57.0563 31.1172 56.8151 31.1762 56.6405 31.2942C56.466 31.4072 56.3403 31.5765 56.2633 31.8024C56.1915 32.0231 56.1555 32.2951 56.1555 32.6184V34.751H55.478V28.8999H56.1555V30.6168ZM63.4797 34.2737C63.5824 34.2737 63.6876 34.266 63.7954 34.2506C63.9032 34.23 63.9904 34.2095 64.0571 34.189V34.7048C63.9853 34.7407 63.8826 34.7689 63.7492 34.7895C63.6158 34.8151 63.4874 34.828 63.3643 34.828C63.1487 34.828 62.9485 34.792 62.7638 34.7202C62.5841 34.6432 62.4378 34.5123 62.3249 34.3275C62.212 34.1428 62.1556 33.8836 62.1556 33.55V31.148H61.5705V30.8246L62.1633 30.5552L62.4327 29.6775H62.833V30.6245H64.0263V31.148H62.833V33.5346C62.833 33.7861 62.8921 33.9734 63.0101 34.0966C63.1333 34.2146 63.2898 34.2737 63.4797 34.2737ZM66.4771 30.5475C66.8312 30.5475 67.134 30.6245 67.3855 30.7784C67.6422 30.9324 67.8372 31.1505 67.9706 31.4328C68.1092 31.71 68.1785 32.0359 68.1785 32.4106V32.8186H65.3531C65.3633 33.2856 65.4814 33.6424 65.7072 33.8887C65.9382 34.1299 66.2589 34.2506 66.6695 34.2506C66.9313 34.2506 67.1623 34.2275 67.3624 34.1813C67.5677 34.1299 67.7782 34.0581 67.9937 33.9657V34.5585C67.7833 34.6509 67.5754 34.7176 67.3701 34.7587C67.1648 34.8049 66.921 34.828 66.6388 34.828C66.2487 34.828 65.9022 34.7484 65.5994 34.5893C65.3017 34.4302 65.0682 34.1941 64.8988 33.881C64.7346 33.5628 64.6525 33.1753 64.6525 32.7185C64.6525 32.2668 64.7269 31.8793 64.8757 31.556C65.0297 31.2327 65.2427 30.9837 65.5147 30.8092C65.7919 30.6347 66.1127 30.5475 66.4771 30.5475ZM66.4694 31.1018C66.146 31.1018 65.8894 31.207 65.6995 31.4174C65.5147 31.6227 65.4044 31.9101 65.3685 32.2797H67.4702C67.4702 32.0436 67.4343 31.8383 67.3624 31.6638C67.2906 31.4893 67.1802 31.3533 67.0314 31.2557C66.8877 31.1531 66.7003 31.1018 66.4694 31.1018ZM70.7919 30.5552C71.2948 30.5552 71.667 30.6655 71.9082 30.8862C72.1494 31.1069 72.27 31.4585 72.27 31.9409V34.751H71.7773L71.6464 34.1659H71.6156C71.4976 34.3147 71.3744 34.4405 71.2461 34.5431C71.1229 34.6406 70.9792 34.7125 70.815 34.7587C70.6558 34.8049 70.4608 34.828 70.2299 34.828C69.9835 34.828 69.7602 34.7843 69.5601 34.6971C69.365 34.6098 69.2111 34.4764 69.0981 34.2968C68.9852 34.112 68.9288 33.881 68.9288 33.6039C68.9288 33.1933 69.0904 32.8776 69.4138 32.6569C69.7371 32.4311 70.235 32.3079 70.9073 32.2874L71.6079 32.2643V32.0179C71.6079 31.674 71.5335 31.4354 71.3847 31.3019C71.2358 31.1685 71.0254 31.1018 70.7534 31.1018C70.5378 31.1018 70.3325 31.1351 70.1375 31.2019C69.9424 31.2634 69.7602 31.3353 69.5909 31.4174L69.383 30.9093C69.5626 30.8118 69.7756 30.7297 70.022 30.6629C70.2683 30.5911 70.525 30.5552 70.7919 30.5552ZM70.992 32.757C70.4788 32.7775 70.1221 32.8597 69.9219 33.0034C69.7269 33.1471 69.6294 33.3498 69.6294 33.6116C69.6294 33.8425 69.6986 34.0119 69.8372 34.1197C69.9809 34.2275 70.1631 34.2814 70.3838 34.2814C70.7328 34.2814 71.0228 34.1864 71.2538 33.9965C71.4847 33.8015 71.6002 33.5038 71.6002 33.1034V32.7339L70.992 32.757ZM75.1998 34.828C74.8353 34.828 74.5094 34.7535 74.222 34.6047C73.9397 34.4559 73.7165 34.2249 73.5522 33.9118C73.3931 33.5987 73.3136 33.1984 73.3136 32.7108C73.3136 32.2027 73.3982 31.7895 73.5676 31.4713C73.737 31.1531 73.9654 30.9196 74.2528 30.7707C74.5454 30.6219 74.8764 30.5475 75.2459 30.5475C75.4564 30.5475 75.6591 30.5706 75.8541 30.6168C76.0492 30.6578 76.2083 30.7091 76.3315 30.7707L76.1236 31.3327C76.0004 31.2865 75.8567 31.2429 75.6925 31.2019C75.5282 31.1608 75.3743 31.1403 75.2305 31.1403C74.9534 31.1403 74.725 31.1993 74.5454 31.3173C74.3657 31.4354 74.2323 31.6099 74.145 31.8409C74.0578 32.0718 74.0141 32.3592 74.0141 32.7031C74.0141 33.0316 74.0578 33.3113 74.145 33.5423C74.2323 33.7732 74.3632 33.9477 74.5377 34.0658C74.7122 34.1838 74.9303 34.2429 75.1921 34.2429C75.4179 34.2429 75.6155 34.2198 75.7849 34.1736C75.9594 34.1274 76.1185 34.0709 76.2622 34.0042V34.6047C76.1236 34.6766 75.9696 34.7304 75.8003 34.7664C75.636 34.8074 75.4358 34.828 75.1998 34.828ZM77.921 30.6168C77.921 30.7143 77.9159 30.8144 77.9056 30.917C77.9005 31.0197 77.8928 31.112 77.8825 31.1942H77.9287C78.016 31.0504 78.1263 30.9324 78.2598 30.84C78.3932 30.7476 78.542 30.6783 78.7063 30.6321C78.8705 30.5808 79.0399 30.5552 79.2144 30.5552C79.548 30.5552 79.8252 30.6091 80.0459 30.7168C80.2717 30.8195 80.4411 30.9812 80.554 31.2019C80.6669 31.4226 80.7234 31.71 80.7234 32.0641V34.751H80.0536V32.1103C80.0536 31.7767 79.9791 31.5278 79.8303 31.3635C79.6815 31.1993 79.4479 31.1172 79.1297 31.1172C78.8218 31.1172 78.5805 31.1762 78.406 31.2942C78.2315 31.4072 78.1058 31.5765 78.0288 31.8024C77.9569 32.0231 77.921 32.2951 77.921 32.6184V34.751H77.2435V28.8999H77.921V30.6168ZM83.5962 30.5475C83.9504 30.5475 84.2532 30.6245 84.5047 30.7784C84.7613 30.9324 84.9564 31.1505 85.0898 31.4328C85.2284 31.71 85.2977 32.0359 85.2977 32.4106V32.8186H82.4722C82.4825 33.2856 82.6005 33.6424 82.8264 33.8887C83.0573 34.1299 83.3781 34.2506 83.7887 34.2506C84.0505 34.2506 84.2814 34.2275 84.4816 34.1813C84.6869 34.1299 84.8973 34.0581 85.1129 33.9657V34.5585C84.9025 34.6509 84.6946 34.7176 84.4893 34.7587C84.284 34.8049 84.0402 34.828 83.7579 34.828C83.3679 34.828 83.0214 34.7484 82.7186 34.5893C82.4209 34.4302 82.1874 34.1941 82.018 33.881C81.8538 33.5628 81.7716 33.1753 81.7716 32.7185C81.7716 32.2668 81.8461 31.8793 81.9949 31.556C82.1489 31.2327 82.3619 30.9837 82.6339 30.8092C82.9111 30.6347 83.2318 30.5475 83.5962 30.5475ZM83.5886 31.1018C83.2652 31.1018 83.0086 31.207 82.8187 31.4174C82.6339 31.6227 82.5236 31.9101 82.4876 32.2797H84.5894C84.5894 32.0436 84.5535 31.8383 84.4816 31.6638C84.4098 31.4893 84.2994 31.3533 84.1506 31.2557C84.0068 31.1531 83.8195 31.1018 83.5886 31.1018ZM88.2729 30.5475C88.3499 30.5475 88.432 30.5526 88.5192 30.5629C88.6116 30.568 88.6912 30.5783 88.7579 30.5937L88.6732 31.2173C88.6065 31.2019 88.5321 31.189 88.4499 31.1788C88.373 31.1685 88.2985 31.1634 88.2267 31.1634C88.0676 31.1634 87.9162 31.1967 87.7725 31.2634C87.6287 31.3302 87.5004 31.4251 87.3875 31.5483C87.2746 31.6663 87.1848 31.8101 87.1181 31.9794C87.0565 32.1488 87.0257 32.3387 87.0257 32.5491V34.751H86.3482V30.6245H86.9025L86.9795 31.3789H87.0103C87.0975 31.225 87.2028 31.0864 87.3259 30.9632C87.4491 30.8349 87.5903 30.7348 87.7494 30.6629C87.9085 30.586 88.083 30.5475 88.2729 30.5475Z" fill="#0B0E25"/>
<rect x="5.27734" y="18.4854" width="14.6412" height="14.6412" fill="#FF5757"/>
<path d="M12.1089 35.6075C10.165 35.6075 8.27506 35.351 6.43916 34.838C4.63025 34.325 3.17233 33.6636 2.06539 32.8536V9.24337C2.06539 8.64941 2.20038 8.20393 2.47037 7.90695C2.76735 7.60996 3.23983 7.46147 3.88779 7.46147H6.80364C7.4786 7.46147 7.95108 7.60996 8.22106 7.90695C8.49105 8.17693 8.62604 8.62241 8.62604 9.24337V16.452C9.24701 15.966 10.057 15.6015 11.0559 15.3585C12.0549 15.0886 13.0943 14.9536 14.1742 14.9536C17.3061 14.9536 19.6954 15.7905 21.3424 17.4644C23.0163 19.1113 23.8532 21.4602 23.8532 24.5111C23.8532 28.0209 22.8543 30.7477 20.8564 32.6916C18.8855 34.6355 15.9696 35.6075 12.1089 35.6075ZM11.7849 30.9907C13.6208 30.9907 14.9842 30.4642 15.8752 29.4113C16.7661 28.3314 17.2116 26.7249 17.2116 24.5921C17.2116 22.8641 16.8606 21.5952 16.1586 20.7853C15.4837 19.9753 14.3632 19.5703 12.7973 19.5703C11.6634 19.5703 10.6779 19.8673 9.84098 20.4613C9.03102 21.0282 8.62604 21.8652 8.62604 22.9721V30.3023C9.00402 30.5182 9.47649 30.6937 10.0435 30.8287C10.6104 30.9367 11.1909 30.9907 11.7849 30.9907Z" fill="#FF5757"/>
<path d="M8.56055 25.126C8.56055 22.2981 10.853 20.0056 13.681 20.0056C16.5089 20.0056 18.8014 22.2981 18.8014 25.126C18.8014 27.954 16.5089 30.2465 13.681 30.2465H8.56055V25.126Z" fill="white"/>
</svg>
