<svg width="16" height="16" viewBox="0 0 16 16" fill="none" xmlns="http://www.w3.org/2000/svg">
<path d="M8.08594 1.5C6.80036 1.5 5.54365 1.88122 4.47473 2.59545C3.40581 3.30968 2.57269 4.32484 2.08072 5.51256C1.58875 6.70028 1.46003 8.00721 1.71084 9.26809C1.96164 10.529 2.5807 11.6872 3.48975 12.5962C4.39879 13.5052 5.55698 14.1243 6.81785 14.3751C8.07873 14.6259 9.38566 14.4972 10.5734 14.0052C11.7611 13.5132 12.7763 12.6801 13.4905 11.6112C14.2047 10.5423 14.5859 9.28558 14.5859 8C14.5841 6.27665 13.8987 4.62441 12.6801 3.40582C11.4615 2.18722 9.80929 1.50182 8.08594 1.5ZM11.5859 8.5H8.08594C7.95333 8.5 7.82616 8.44732 7.73239 8.35355C7.63862 8.25979 7.58594 8.13261 7.58594 8V4.5C7.58594 4.36739 7.63862 4.24021 7.73239 4.14645C7.82616 4.05268 7.95333 4 8.08594 4C8.21855 4 8.34573 4.05268 8.43949 4.14645C8.53326 4.24021 8.58594 4.36739 8.58594 4.5V7.5H11.5859C11.7185 7.5 11.8457 7.55268 11.9395 7.64645C12.0333 7.74021 12.0859 7.86739 12.0859 8C12.0859 8.13261 12.0333 8.25979 11.9395 8.35355C11.8457 8.44732 11.7185 8.5 11.5859 8.5Z" fill="#3C3E51"/>
</svg>
