<svg xmlns="http://www.w3.org/2000/svg" viewBox="0 0 67 67" fill="none">
  <path d="M0.382812 32.0517C0.382812 14.4555 14.6474 0.190918 32.2436 0.190918H35.14C52.7363 0.190918 67.0008 14.4555 67.0008 32.0517V34.9481C67.0008 52.5444 52.7363 66.8089 35.14 66.8089H0.382812V32.0517Z" fill="#FF5757"/>
  <path d="M22.2249 18.0935C21.8339 19.4143 21.4255 20.6525 20.9997 21.8082C20.5739 22.9639 20.109 24.0848 19.6051 25.1709C19.4226 25.562 19.2401 25.8922 19.0576 26.1615C18.8752 26.4396 18.6753 26.6655 18.4581 26.8393C18.2408 27.0218 17.9932 27.1521 17.7151 27.2303C17.4458 27.3172 17.1286 27.3606 16.7637 27.3606C16.4595 27.3606 16.1771 27.3302 15.9165 27.2694C15.6645 27.2173 15.4559 27.1565 15.2908 27.0869L15.6297 25.5359C15.8296 25.6054 16.0077 25.6532 16.1641 25.6793C16.3205 25.7053 16.4856 25.7184 16.6594 25.7184C17.007 25.7184 17.272 25.6228 17.4545 25.4316C17.6456 25.2491 17.8064 24.9928 17.9367 24.6626C17.4936 23.7937 17.0504 22.8205 16.6073 21.743C16.1641 20.6569 15.747 19.4403 15.356 18.0935H17.4154C17.5023 18.4324 17.6022 18.8017 17.7151 19.2014C17.8368 19.5924 17.9628 19.9921 18.0931 20.4005C18.2235 20.8002 18.3538 21.1912 18.4841 21.5736C18.6232 21.9559 18.7535 22.3035 18.8752 22.6163C18.9881 22.3035 19.1054 21.9559 19.2271 21.5736C19.3487 21.1912 19.466 20.8002 19.579 20.4005C19.7007 19.9921 19.8136 19.5924 19.9179 19.2014C20.0308 18.8017 20.1308 18.4324 20.2177 18.0935H22.2249Z" fill="#F8F8F8"/>
  <path d="M29.5005 21.5084C29.5005 22.0471 29.4223 22.5424 29.2659 22.9943C29.1095 23.4374 28.8835 23.8198 28.5881 24.1413C28.2927 24.4541 27.9364 24.6974 27.5193 24.8712C27.1109 25.045 26.6504 25.1318 26.1377 25.1318C25.6337 25.1318 25.1732 25.045 24.7561 24.8712C24.3477 24.6974 23.9958 24.4541 23.7004 24.1413C23.4049 23.8198 23.1747 23.4374 23.0096 22.9943C22.8445 22.5424 22.7619 22.0471 22.7619 21.5084C22.7619 20.9697 22.8445 20.4787 23.0096 20.0356C23.1834 19.5924 23.418 19.2144 23.7134 18.9016C24.0175 18.5888 24.3738 18.3455 24.7822 18.1717C25.1993 17.9979 25.6511 17.911 26.1377 17.911C26.633 17.911 27.0849 17.9979 27.4933 18.1717C27.9103 18.3455 28.2666 18.5888 28.562 18.9016C28.8575 19.2144 29.0877 19.5924 29.2528 20.0356C29.4179 20.4787 29.5005 20.9697 29.5005 21.5084ZM27.5193 21.5084C27.5193 20.9088 27.3977 20.4396 27.1544 20.1007C26.9198 19.7532 26.5809 19.5794 26.1377 19.5794C25.6946 19.5794 25.3513 19.7532 25.108 20.1007C24.8647 20.4396 24.7431 20.9088 24.7431 21.5084C24.7431 22.108 24.8647 22.5859 25.108 22.9421C25.3513 23.2897 25.6946 23.4635 26.1377 23.4635C26.5809 23.4635 26.9198 23.2897 27.1544 22.9421C27.3977 22.5859 27.5193 22.108 27.5193 21.5084Z" fill="#F8F8F8"/>
  <path d="M36.8571 24.7148C36.5269 24.8103 36.1012 24.8972 35.5798 24.9754C35.0585 25.0623 34.511 25.1058 33.9375 25.1058C33.3554 25.1058 32.8687 25.0276 32.4777 24.8712C32.0954 24.7148 31.7913 24.4975 31.5654 24.2195C31.3394 23.9327 31.1787 23.5938 31.0831 23.2028C30.9875 22.8118 30.9397 22.3817 30.9397 21.9125V18.0935H32.8818V21.6778C32.8818 22.3035 32.9643 22.7553 33.1294 23.0334C33.2945 23.3114 33.603 23.4505 34.0548 23.4505C34.1939 23.4505 34.3416 23.4461 34.498 23.4374C34.6544 23.42 34.7934 23.4027 34.9151 23.3853V18.0935H36.8571V24.7148Z" fill="#F8F8F8"/>
  <path d="M15.8122 34.5214C15.8122 34.0261 15.8904 33.5613 16.0468 33.1268C16.2119 32.6836 16.4465 32.3013 16.7506 31.9798C17.0548 31.6496 17.4241 31.3889 17.8585 31.1978C18.293 31.0066 18.7883 30.911 19.3444 30.911C19.7093 30.911 20.0439 30.9458 20.348 31.0153C20.6521 31.0761 20.9476 31.1674 21.2343 31.289L20.8303 32.8401C20.6478 32.7705 20.4479 32.7097 20.2307 32.6576C20.0135 32.6054 19.7702 32.5794 19.5008 32.5794C18.9273 32.5794 18.4972 32.7575 18.2104 33.1138C17.9324 33.47 17.7933 33.9393 17.7933 34.5214C17.7933 35.1384 17.9237 35.6163 18.1844 35.9552C18.4537 36.2941 18.9186 36.4635 19.579 36.4635C19.8136 36.4635 20.0656 36.4418 20.335 36.3983C20.6043 36.3549 20.852 36.2854 21.0779 36.1898L21.3516 37.7799C21.1257 37.8755 20.8433 37.9581 20.5044 38.0276C20.1655 38.0971 19.7919 38.1318 19.3835 38.1318C18.7579 38.1318 18.2191 38.0406 17.7673 37.8581C17.3154 37.667 16.9418 37.4106 16.6464 37.0891C16.3596 36.7676 16.1467 36.3896 16.0077 35.9552C15.8774 35.512 15.8122 35.0341 15.8122 34.5214Z" fill="#F8F8F8"/>
  <path d="M24.9439 36.5938C25.1351 36.5938 25.3175 36.5895 25.4913 36.5808C25.6651 36.5721 25.8041 36.5591 25.9084 36.5417V35.0689C25.8302 35.0515 25.7129 35.0341 25.5565 35.0167C25.4001 34.9993 25.2567 34.9907 25.1264 34.9907C24.9439 34.9907 24.7701 35.0037 24.605 35.0298C24.4486 35.0471 24.3096 35.0862 24.1879 35.1471C24.0663 35.2079 23.9707 35.2904 23.9012 35.3947C23.8317 35.499 23.7969 35.6293 23.7969 35.7857C23.7969 36.0899 23.8968 36.3027 24.0967 36.4244C24.3052 36.5374 24.5876 36.5938 24.9439 36.5938ZM24.7875 30.911C25.361 30.911 25.8389 30.9762 26.2212 31.1065C26.6036 31.2369 26.9077 31.4237 27.1336 31.667C27.3682 31.9103 27.5333 32.2057 27.6289 32.5533C27.7245 32.9009 27.7723 33.2876 27.7723 33.7133V37.7539C27.4942 37.8147 27.1075 37.8842 26.6122 37.9624C26.117 38.0493 25.5174 38.0927 24.8136 38.0927C24.3704 38.0927 23.9664 38.0536 23.6014 37.9754C23.2451 37.8972 22.9367 37.7712 22.676 37.5975C22.4153 37.415 22.2155 37.1804 22.0764 36.8936C21.9374 36.6069 21.8679 36.255 21.8679 35.8379C21.8679 35.4382 21.9461 35.0993 22.1025 34.8212C22.2676 34.5432 22.4848 34.3216 22.7542 34.1565C23.0236 33.9914 23.332 33.8741 23.6796 33.8046C24.0272 33.7264 24.3878 33.6873 24.7614 33.6873C25.0134 33.6873 25.235 33.7003 25.4262 33.7264C25.626 33.7437 25.7868 33.7698 25.9084 33.8046V33.6221C25.9084 33.2919 25.8085 33.0269 25.6086 32.827C25.4088 32.6272 25.0612 32.5272 24.5659 32.5272C24.2357 32.5272 23.9099 32.5533 23.5884 32.6054C23.2669 32.6489 22.9888 32.7141 22.7542 32.801L22.5065 31.2369C22.6195 31.2021 22.7585 31.1674 22.9236 31.1326C23.0974 31.0892 23.2842 31.0544 23.4841 31.0283C23.684 30.9936 23.8925 30.9675 24.1097 30.9501C24.3356 30.9241 24.5616 30.911 24.7875 30.911Z" fill="#F8F8F8"/>
  <path d="M29.5284 31.3281C29.8586 31.2325 30.2844 31.1456 30.8057 31.0674C31.3271 30.9805 31.8745 30.9371 32.448 30.9371C33.0302 30.9371 33.5124 31.0153 33.8948 31.1717C34.2858 31.3194 34.5943 31.5323 34.8202 31.8104C35.0461 32.0884 35.2069 32.4186 35.3024 32.801C35.398 33.1833 35.4458 33.6091 35.4458 34.0783V37.9494H33.5037V34.3129C33.5037 33.6873 33.4212 33.2441 33.2561 32.9834C33.091 32.7227 32.7825 32.5924 32.3307 32.5924C32.1917 32.5924 32.0439 32.6011 31.8875 32.6185C31.7311 32.6272 31.5921 32.6402 31.4705 32.6576V37.9494H29.5284V31.3281Z" fill="#F8F8F8"/>
  <path d="M17.7933 47.4693C17.7933 48.0689 17.928 48.5511 18.1974 48.9161C18.4668 49.281 18.8665 49.4635 19.3965 49.4635C19.5703 49.4635 19.7311 49.4592 19.8788 49.4505C20.0265 49.4331 20.1482 49.4157 20.2437 49.3983V45.8661C20.1221 45.7879 19.9613 45.7227 19.7615 45.6706C19.5703 45.6185 19.3748 45.5924 19.1749 45.5924C18.2539 45.5924 17.7933 46.218 17.7933 47.4693ZM22.1858 50.7278C22.012 50.7799 21.8122 50.8321 21.5862 50.8842C21.3603 50.9276 21.1214 50.9667 20.8694 51.0015C20.6261 51.0363 20.3741 51.0623 20.1134 51.0797C19.8614 51.1058 19.6181 51.1188 19.3835 51.1188C18.8187 51.1188 18.3147 51.0363 17.8716 50.8712C17.4284 50.7061 17.0548 50.4715 16.7506 50.1673C16.4465 49.8545 16.2119 49.4809 16.0468 49.0464C15.8904 48.6033 15.8122 48.108 15.8122 47.5605C15.8122 47.0044 15.8817 46.5048 16.0207 46.0616C16.1598 45.6098 16.3596 45.2275 16.6203 44.9146C16.881 44.6018 17.1981 44.3629 17.5718 44.1978C17.9541 44.0327 18.3886 43.9501 18.8752 43.9501C19.1445 43.9501 19.3835 43.9762 19.592 44.0283C19.8093 44.0805 20.0265 44.1543 20.2437 44.2499V41.1478L22.1858 40.835V50.7278Z" fill="#F8F8F8"/>
  <path d="M30.4169 47.5084C30.4169 48.0471 30.3387 48.5424 30.1823 48.9943C30.0259 49.4374 29.8 49.8198 29.5046 50.1413C29.2091 50.4541 28.8529 50.6974 28.4358 50.8712C28.0274 51.0449 27.5668 51.1318 27.0542 51.1318C26.5502 51.1318 26.0897 51.0449 25.6726 50.8712C25.2642 50.6974 24.9123 50.4541 24.6168 50.1413C24.3214 49.8198 24.0911 49.4374 23.926 48.9943C23.7609 48.5424 23.6784 48.0471 23.6784 47.5084C23.6784 46.9697 23.7609 46.4787 23.926 46.0356C24.0998 45.5924 24.3344 45.2144 24.6299 44.9016C24.934 44.5888 25.2902 44.3455 25.6986 44.1717C26.1157 43.9979 26.5676 43.911 27.0542 43.911C27.5495 43.911 28.0013 43.9979 28.4097 44.1717C28.8268 44.3455 29.1831 44.5888 29.4785 44.9016C29.7739 45.2144 30.0042 45.5924 30.1693 46.0356C30.3344 46.4787 30.4169 46.9697 30.4169 47.5084ZM28.4358 47.5084C28.4358 46.9088 28.3141 46.4396 28.0708 46.1007C27.8362 45.7532 27.4973 45.5794 27.0542 45.5794C26.611 45.5794 26.2678 45.7532 26.0245 46.1007C25.7812 46.4396 25.6595 46.9088 25.6595 47.5084C25.6595 48.108 25.7812 48.5859 26.0245 48.9421C26.2678 49.2897 26.611 49.4635 27.0542 49.4635C27.4973 49.4635 27.8362 49.2897 28.0708 48.9421C28.3141 48.5859 28.4358 48.108 28.4358 47.5084Z" fill="#F8F8F8"/>
  <path d="M36.9946 50.9494H35.0525V44.0935H36.9946V50.9494ZM37.1771 42.1123C37.1771 42.4686 37.0598 42.751 36.8252 42.9595C36.5992 43.1594 36.3299 43.2593 36.0171 43.2593C35.7042 43.2593 35.4305 43.1594 35.1959 42.9595C34.97 42.751 34.857 42.4686 34.857 42.1123C34.857 41.7561 34.97 41.478 35.1959 41.2782C35.4305 41.0696 35.7042 40.9654 36.0171 40.9654C36.3299 40.9654 36.5992 41.0696 36.8252 41.2782C37.0598 41.478 37.1771 41.7561 37.1771 42.1123Z" fill="#F8F8F8"/>
  <path d="M38.755 42.3861L40.6971 42.0732V44.0935H43.0301V45.7097H40.6971V48.121C40.6971 48.5294 40.7666 48.8552 40.9056 49.0985C41.0533 49.3418 41.3444 49.4635 41.7789 49.4635C41.9874 49.4635 42.2003 49.4461 42.4175 49.4114C42.6435 49.3679 42.8477 49.3114 43.0301 49.2419L43.3039 50.7539C43.0692 50.8494 42.8086 50.932 42.5218 51.0015C42.2351 51.071 41.8832 51.1058 41.4661 51.1058C40.936 51.1058 40.4972 51.0363 40.1496 50.8972C39.8021 50.7495 39.524 50.5497 39.3155 50.2977C39.1069 50.037 38.9592 49.7242 38.8723 49.3592C38.7941 48.9943 38.755 48.5902 38.755 48.1471V42.3861Z" fill="#F8F8F8"/>
  <path d="M46.6058 44.2499C46.6058 44.9537 46.5798 45.6098 46.5276 46.218C46.4755 46.8263 46.406 47.4432 46.3191 48.0689H44.8332C44.7463 47.4432 44.6725 46.8263 44.6116 46.218C44.5595 45.6098 44.5334 44.9537 44.5334 44.2499V41.9168H46.6058V44.2499ZM46.7753 49.9197C46.7753 50.302 46.6493 50.5974 46.3973 50.806C46.154 51.0145 45.8759 51.1188 45.5631 51.1188C45.2503 51.1188 44.9679 51.0145 44.7159 50.806C44.4726 50.5974 44.351 50.302 44.351 49.9197C44.351 49.5374 44.4726 49.2419 44.7159 49.0334C44.9679 48.8248 45.2503 48.7206 45.5631 48.7206C45.8759 48.7206 46.154 48.8248 46.3973 49.0334C46.6493 49.2419 46.7753 49.5374 46.7753 49.9197Z" fill="#F8F8F8"/>
</svg>