<svg viewBox="0 0 67 67" fill="none" xmlns="http://www.w3.org/2000/svg">
<path d="M0 32.0435C0 14.3463 14.3464 0 32.0435 0H34.9565C52.6537 0 67 14.3464 67 32.0435V34.9565C67 52.6537 52.6537 67 34.9565 67H0V32.0435Z" fill="#FF8957"/>
<path d="M21.9684 18.4277C21.5752 19.756 21.1644 21.0013 20.7362 22.1637C20.308 23.326 19.8404 24.4533 19.3336 25.5457C19.15 25.939 18.9665 26.271 18.783 26.542C18.5995 26.8216 18.3985 27.0488 18.18 27.2236C17.9615 27.4071 17.7125 27.5382 17.4328 27.6169C17.1619 27.7043 16.8429 27.748 16.4759 27.748C16.17 27.748 15.886 27.7174 15.6238 27.6562C15.3704 27.6038 15.1606 27.5426 14.9946 27.4727L15.3354 25.9127C15.5364 25.9827 15.7156 26.0307 15.8729 26.0569C16.0302 26.0832 16.1962 26.0963 16.371 26.0963C16.7206 26.0963 16.9871 26.0001 17.1706 25.8079C17.3629 25.6243 17.5246 25.3665 17.6557 25.0345C17.21 24.1605 16.7643 23.1818 16.3186 22.0981C15.8729 21.0057 15.4534 19.7822 15.0601 18.4277H17.1313C17.2187 18.7685 17.3192 19.1399 17.4328 19.5419C17.5552 19.9352 17.6819 20.3372 17.813 20.7479C17.944 21.1499 18.0751 21.5432 18.2062 21.9277C18.346 22.3122 18.4771 22.6618 18.5995 22.9764C18.7131 22.6618 18.8311 22.3122 18.9534 21.9277C19.0758 21.5432 19.1937 21.1499 19.3073 20.7479C19.4297 20.3372 19.5433 19.9352 19.6482 19.5419C19.7618 19.1399 19.8623 18.7685 19.9497 18.4277H21.9684Z" fill="#F8F8F8"/>
<path d="M29.2857 21.8622C29.2857 22.404 29.2071 22.9021 29.0498 23.3565C28.8925 23.8022 28.6653 24.1868 28.3681 24.5101C28.071 24.8247 27.7127 25.0694 27.2932 25.2442C26.8825 25.419 26.4193 25.5064 25.9037 25.5064C25.3968 25.5064 24.9336 25.419 24.5142 25.2442C24.1034 25.0694 23.7495 24.8247 23.4524 24.5101C23.1552 24.1868 22.9236 23.8022 22.7576 23.3565C22.5916 22.9021 22.5085 22.404 22.5085 21.8622C22.5085 21.3203 22.5916 20.8266 22.7576 20.3809C22.9324 19.9352 23.1683 19.555 23.4655 19.2404C23.7713 18.9258 24.1296 18.6811 24.5404 18.5063C24.9599 18.3315 25.4143 18.2442 25.9037 18.2442C26.4018 18.2442 26.8563 18.3315 27.267 18.5063C27.6865 18.6811 28.0448 18.9258 28.3419 19.2404C28.639 19.555 28.8706 19.9352 29.0367 20.3809C29.2027 20.8266 29.2857 21.3203 29.2857 21.8622ZM27.2932 21.8622C27.2932 21.2592 27.1709 20.7872 26.9262 20.4464C26.6902 20.0968 26.3494 19.9221 25.9037 19.9221C25.458 19.9221 25.1128 20.0968 24.8681 20.4464C24.6234 20.7872 24.5011 21.2592 24.5011 21.8622C24.5011 22.4652 24.6234 22.9458 24.8681 23.3041C25.1128 23.6537 25.458 23.8285 25.9037 23.8285C26.3494 23.8285 26.6902 23.6537 26.9262 23.3041C27.1709 22.9458 27.2932 22.4652 27.2932 21.8622Z" fill="#F8F8F8"/>
<path d="M36.6846 25.0869C36.3525 25.183 35.9243 25.2704 35.3999 25.3491C34.8756 25.4365 34.325 25.4802 33.7482 25.4802C33.1627 25.4802 32.6733 25.4015 32.28 25.2442C31.8955 25.0869 31.5897 24.8684 31.3624 24.5888C31.1352 24.3004 30.9735 23.9595 30.8774 23.5663C30.7813 23.173 30.7332 22.7404 30.7332 22.2685V18.4277H32.6864V22.0326C32.6864 22.6618 32.7694 23.1162 32.9355 23.3959C33.1015 23.6755 33.4118 23.8153 33.8662 23.8153C34.006 23.8153 34.1546 23.811 34.3119 23.8022C34.4692 23.7848 34.609 23.7673 34.7314 23.7498V18.4277H36.6846V25.0869Z" fill="#F8F8F8"/>
<path d="M15.5189 34.9451C15.5189 34.447 15.5976 33.9794 15.7549 33.5425C15.9209 33.0968 16.1569 32.7123 16.4628 32.3889C16.7686 32.0568 17.14 31.7947 17.577 31.6024C18.014 31.4101 18.5121 31.314 19.0714 31.314C19.4384 31.314 19.7749 31.349 20.0808 31.4189C20.3866 31.4801 20.6838 31.5718 20.9722 31.6942L20.5658 33.2541C20.3823 33.1842 20.1813 33.123 19.9628 33.0706C19.7443 33.0181 19.4996 32.9919 19.2287 32.9919C18.6519 32.9919 18.2193 33.1711 17.9309 33.5294C17.6513 33.8877 17.5115 34.3596 17.5115 34.9451C17.5115 35.5656 17.6425 36.0463 17.9047 36.3871C18.1756 36.7279 18.6432 36.8983 19.3073 36.8983C19.5433 36.8983 19.7967 36.8765 20.0677 36.8328C20.3386 36.7891 20.5876 36.7192 20.8149 36.623L21.0901 38.2223C20.8629 38.3184 20.5789 38.4014 20.2381 38.4714C19.8972 38.5413 19.5215 38.5762 19.1107 38.5762C18.4815 38.5762 17.9397 38.4845 17.4852 38.3009C17.0308 38.1087 16.655 37.8509 16.3579 37.5275C16.0695 37.2042 15.8554 36.824 15.7156 36.3871C15.5845 35.9414 15.5189 35.4607 15.5189 34.9451Z" fill="#F8F8F8"/>
<path d="M24.703 37.0294C24.8953 37.0294 25.0788 37.025 25.2536 37.0163C25.4284 37.0076 25.5682 36.9944 25.6731 36.977V35.4957C25.5944 35.4782 25.4764 35.4607 25.3191 35.4432C25.1618 35.4258 25.0176 35.417 24.8865 35.417C24.703 35.417 24.5282 35.4301 24.3622 35.4564C24.2049 35.4738 24.0651 35.5132 23.9427 35.5743C23.8204 35.6355 23.7242 35.7185 23.6543 35.8234C23.5844 35.9283 23.5494 36.0594 23.5494 36.2167C23.5494 36.5225 23.6499 36.7366 23.8509 36.859C24.0607 36.9726 24.3447 37.0294 24.703 37.0294ZM24.5457 31.314C25.1225 31.314 25.6031 31.3796 25.9877 31.5106C26.3722 31.6417 26.6781 31.8296 26.9053 32.0743C27.1412 32.319 27.3073 32.6161 27.4034 32.9657C27.4995 33.3153 27.5476 33.7042 27.5476 34.1324V38.1961C27.2679 38.2573 26.8791 38.3272 26.3809 38.4058C25.8828 38.4932 25.2798 38.5369 24.5719 38.5369C24.1262 38.5369 23.7199 38.4976 23.3528 38.4189C22.9945 38.3403 22.6843 38.2136 22.4221 38.0388C22.1599 37.8553 21.9589 37.6193 21.8191 37.3309C21.6793 37.0425 21.6094 36.6886 21.6094 36.2691C21.6094 35.8671 21.688 35.5263 21.8453 35.2466C22.0114 34.967 22.2298 34.7441 22.5008 34.5781C22.7717 34.412 23.0819 34.2941 23.4315 34.2241C23.781 34.1455 24.1437 34.1062 24.5195 34.1062C24.7729 34.1062 24.9958 34.1193 25.188 34.1455C25.389 34.163 25.5507 34.1892 25.6731 34.2241V34.0406C25.6731 33.7085 25.5726 33.442 25.3716 33.241C25.1706 33.04 24.821 32.9395 24.3229 32.9395C23.9908 32.9395 23.6631 32.9657 23.3397 33.0181C23.0164 33.0618 22.7367 33.1274 22.5008 33.2148L22.2517 31.6417C22.3653 31.6068 22.5051 31.5718 22.6712 31.5369C22.8459 31.4932 23.0338 31.4582 23.2348 31.432C23.4358 31.397 23.6456 31.3708 23.8641 31.3533C24.0913 31.3271 24.3185 31.314 24.5457 31.314Z" fill="#F8F8F8"/>
<path d="M29.3138 31.7335C29.6459 31.6374 30.0741 31.55 30.5984 31.4713C31.1228 31.3839 31.6734 31.3402 32.2501 31.3402C32.8357 31.3402 33.3207 31.4189 33.7052 31.5762C34.0985 31.7248 34.4087 31.9389 34.6359 32.2185C34.8631 32.4982 35.0248 32.8302 35.1209 33.2148C35.2171 33.5993 35.2651 34.0275 35.2651 34.4994V38.3927H33.3119V34.7354C33.3119 34.1062 33.2289 33.6605 33.0629 33.3983C32.8968 33.1361 32.5866 33.005 32.1322 33.005C31.9923 33.005 31.8438 33.0138 31.6865 33.0312C31.5292 33.04 31.3893 33.0531 31.267 33.0706V38.3927H29.3138V31.7335Z" fill="#F8F8F8"/>
<path d="M17.5115 47.9625C17.5115 48.5655 17.6469 49.0506 17.9178 49.4176C18.1887 49.7847 18.5907 49.9682 19.1238 49.9682C19.2986 49.9682 19.4603 49.9638 19.6089 49.9551C19.7574 49.9376 19.8798 49.9201 19.9759 49.9026V46.3502C19.8535 46.2715 19.6919 46.206 19.4909 46.1535C19.2986 46.1011 19.102 46.0749 18.901 46.0749C17.9746 46.0749 17.5115 46.7041 17.5115 47.9625ZM21.9291 51.2397C21.7543 51.2922 21.5533 51.3446 21.3261 51.397C21.0989 51.4407 20.8585 51.48 20.6051 51.515C20.3604 51.55 20.107 51.5762 19.8448 51.5937C19.5914 51.6199 19.3467 51.633 19.1107 51.633C18.5427 51.633 18.0358 51.55 17.5901 51.3839C17.1444 51.2179 16.7686 50.9819 16.4628 50.676C16.1569 50.3614 15.9209 49.9857 15.7549 49.5487C15.5976 49.103 15.5189 48.6049 15.5189 48.0543C15.5189 47.495 15.5888 46.9925 15.7287 46.5468C15.8685 46.0924 16.0695 45.7078 16.3317 45.3932C16.5938 45.0786 16.9128 44.8383 17.2886 44.6723C17.6731 44.5062 18.1101 44.4232 18.5995 44.4232C18.8704 44.4232 19.1107 44.4494 19.3205 44.5018C19.5389 44.5543 19.7574 44.6286 19.9759 44.7247V41.6048L21.9291 41.2902V51.2397Z" fill="#F8F8F8"/>
<path d="M30.2074 48.0019C30.2074 48.5437 30.1288 49.0418 29.9715 49.4963C29.8142 49.942 29.587 50.3265 29.2898 50.6498C28.9927 50.9644 28.6344 51.2091 28.2149 51.3839C27.8042 51.5587 27.341 51.6461 26.8254 51.6461C26.3185 51.6461 25.8553 51.5587 25.4359 51.3839C25.0251 51.2091 24.6712 50.9644 24.3741 50.6498C24.0769 50.3265 23.8453 49.942 23.6793 49.4963C23.5133 49.0418 23.4302 48.5437 23.4302 48.0019C23.4302 47.46 23.5133 46.9663 23.6793 46.5206C23.8541 46.0749 24.09 45.6947 24.3872 45.3801C24.693 45.0655 25.0513 44.8208 25.4621 44.646C25.8816 44.4713 26.336 44.3839 26.8254 44.3839C27.3235 44.3839 27.778 44.4713 28.1887 44.646C28.6082 44.8208 28.9665 45.0655 29.2636 45.3801C29.5607 45.6947 29.7923 46.0749 29.9584 46.5206C30.1244 46.9663 30.2074 47.46 30.2074 48.0019ZM28.2149 48.0019C28.2149 47.3989 28.0926 46.927 27.8479 46.5861C27.6119 46.2366 27.2711 46.0618 26.8254 46.0618C26.3797 46.0618 26.0345 46.2366 25.7898 46.5861C25.5451 46.927 25.4228 47.3989 25.4228 48.0019C25.4228 48.6049 25.5451 49.0855 25.7898 49.4438C26.0345 49.7934 26.3797 49.9682 26.8254 49.9682C27.2711 49.9682 27.6119 49.7934 27.8479 49.4438C28.0926 49.0855 28.2149 48.6049 28.2149 48.0019Z" fill="#F8F8F8"/>
<path d="M36.8228 51.4626H34.8696V44.5674H36.8228V51.4626ZM37.0063 42.5749C37.0063 42.9332 36.8884 43.2172 36.6524 43.4269C36.4252 43.6279 36.1543 43.7284 35.8397 43.7284C35.5251 43.7284 35.2498 43.6279 35.0138 43.4269C34.7866 43.2172 34.673 42.9332 34.673 42.5749C34.673 42.2166 34.7866 41.9369 35.0138 41.7359C35.2498 41.5262 35.5251 41.4213 35.8397 41.4213C36.1543 41.4213 36.4252 41.5262 36.6524 41.7359C36.8884 41.9369 37.0063 42.2166 37.0063 42.5749Z" fill="#F8F8F8"/>
<path d="M38.5933 42.8502L40.5465 42.5355V44.5674H42.893V46.1929H40.5465V48.618C40.5465 49.0287 40.6164 49.3564 40.7563 49.6011C40.9048 49.8458 41.1976 49.9682 41.6345 49.9682C41.8443 49.9682 42.0584 49.9507 42.2769 49.9157C42.5041 49.872 42.7094 49.8152 42.893 49.7453L43.1683 51.2659C42.9323 51.3621 42.6701 51.4451 42.3817 51.515C42.0933 51.5849 41.7394 51.6199 41.3199 51.6199C40.7868 51.6199 40.3455 51.55 39.9959 51.4101C39.6464 51.2616 39.3667 51.0606 39.157 50.8071C38.9473 50.545 38.7987 50.2303 38.7113 49.8633C38.6326 49.4963 38.5933 49.0899 38.5933 48.6442V42.8502Z" fill="#F8F8F8"/>
<path d="M46.4892 44.7247C46.4892 45.4326 46.4629 46.0924 46.4105 46.7041C46.3581 47.3158 46.2882 47.9363 46.2008 48.5655H44.7064C44.619 47.9363 44.5447 47.3158 44.4835 46.7041C44.4311 46.0924 44.4049 45.4326 44.4049 44.7247V42.3782H46.4892V44.7247ZM46.6596 50.427C46.6596 50.8115 46.5328 51.1086 46.2794 51.3184C46.0347 51.5281 45.7551 51.633 45.4405 51.633C45.1258 51.633 44.8418 51.5281 44.5884 51.3184C44.3437 51.1086 44.2213 50.8115 44.2213 50.427C44.2213 50.0425 44.3437 49.7453 44.5884 49.5356C44.8418 49.3258 45.1258 49.221 45.4405 49.221C45.7551 49.221 46.0347 49.3258 46.2794 49.5356C46.5328 49.7453 46.6596 50.0425 46.6596 50.427Z" fill="#F8F8F8"/>
</svg>
