<?xml version="1.0" standalone="no"?>
<!DOCTYPE svg PUBLIC "-//W3C//DTD SVG 20010904//EN"
 "http://www.w3.org/TR/2001/REC-SVG-20010904/DTD/svg10.dtd">
<svg version="1.0" xmlns="http://www.w3.org/2000/svg"
 width="260.000000pt" height="260.000000pt" viewBox="0 0 260.000000 260.000000"
 preserveAspectRatio="xMidYMid meet">
<metadata>
Created by potrace 1.14, written by Peter Selinger 2001-2017
</metadata>
<g transform="translate(0.000000,260.000000) scale(0.100000,-0.100000)"
fill="#000000" stroke="none">
<path d="M523 2380 c-17 -10 -37 -28 -42 -39 -8 -13 -11 -319 -11 -975 l0
-955 28 -19 c146 -104 417 -179 683 -189 249 -9 413 19 579 100 69 34 102 59
175 132 108 107 162 202 202 353 23 87 26 116 26 272 0 148 -3 187 -21 253
-35 127 -92 225 -182 311 -147 140 -308 192 -575 183 -165 -5 -257 -25 -353
-77 l-52 -28 -1 296 c0 334 -4 357 -59 384 -29 15 -63 18 -200 18 -146 0 -169
-2 -197 -20z m969 -990 c317 -98 382 -523 109 -707 -99 -67 -130 -73 -398 -73
l-233 0 0 209 c0 114 5 233 10 262 15 77 56 156 111 211 106 106 256 143 401
98z"/>
</g>
</svg>
